<svg version="1.1" xmlns="http://www.w3.org/2000/svg" xmlns:xlink="http://www.w3.org/1999/xlink" width="199.6997" height="203.47485" viewBox="0,0,199.6997,203.47485"><g transform="translate(-140.15015,-80.15015)"><g data-paper-data="{&quot;isPaintingLayer&quot;:true}" fill-rule="nonzero" stroke-linecap="butt" stroke-linejoin="miter" stroke-miterlimit="10" stroke-dasharray="" stroke-dashoffset="0" style="mix-blend-mode: normal"><path d="M314,277.75c0,2.69239 -32.12358,4.875 -71.75,4.875c-39.62642,0 -71.75,-2.18261 -71.75,-4.875c0,-2.69239 32.12358,-4.875 71.75,-4.875c39.62642,0 71.75,2.18261 71.75,4.875z" fill="#000000" stroke="#000000" stroke-width="2"/><g stroke="none" stroke-width="1"><g><path d="M249.3159,132.39528c-2.62224,0.87546 -11.43328,0.47134 -11.70215,0.26887c0,-2.22143 -0.47051,-4.57812 5.1117,-4.91421c5.58221,-0.33691 6.11994,2.62556 6.59044,4.64534z" fill="#82783c"/><path d="M247.02974,130.37549c0.53772,0.06722 0.94185,0.47134 0.94185,0.94268c0,0.67299 -0.53856,0.7402 -0.94185,0.7402c-1.07628,-0.06722 -1.07628,-1.0099 -0.87463,-1.27875c0.20165,-0.26969 0.53856,-0.40412 0.87463,-0.40412c0,0 0.06722,0 0,0z" fill="#645a1e"/><path d="M239.63105,130.50993c0.53856,0.06722 0.94185,0.47134 0.94185,0.94268c0,0.67299 -0.53772,0.74103 -0.94185,0.74103c-1.07545,-0.06805 -1.07545,-1.0099 -0.8738,-1.27959c0.20165,-0.26887 0.53772,-0.40412 0.8738,-0.40412c0,0 0.06805,0 0,0z" fill="#645a1e"/><path d="M271.78,141.34988v1.75009c-1.41235,0 -5.8519,0.13443 -8.6094,0.06722v-1.75009c2.42142,-0.06722 6.18798,-0.13526 8.6094,-0.06722z" fill="#fab414"/><path d="M273.59565,145.92718c-1.34514,0.33691 -2.62307,0.53939 -3.96821,0.67381l-2.0173,-9.02182c1.27792,-0.60577 3.83295,-0.60577 3.83295,-0.60577z" fill="#ffc800"/><path d="M223.22132,141.4171v1.75009c-2.7575,0.06722 -7.19622,-0.06722 -8.6094,-0.06722v-1.75009c2.3542,-0.06805 6.12077,0 8.6094,0.06722z" fill="#fab414"/><path d="M214.94884,136.9734c0,0 2.55585,0 3.83295,0.60577l-2.0173,9.02182c-1.34514,-0.13443 -2.62307,-0.33691 -3.96821,-0.67381z" fill="#ffc800"/><path d="M268.75281,156.36302l-50.7104,0.20165c0.67216,-5.99131 1.81565,-17.43704 3.56492,-21.07249c2.08451,-4.30843 6.32159,-3.29855 10.55865,-3.36659c4.50593,-0.06722 25.01912,-0.87463 31.34154,0.87546c1.68122,1.61566 4.64036,17.90838 5.2453,23.36197z" fill="#a0aa1e"/><path d="M231.15691,141.28184c-1.614,-2.55834 0.87463,-6.52987 6.59127,-6.93399c4.16986,-0.33691 8.3397,-0.26969 12.44234,0.20165c3.09358,0.53856 7.66756,4.174 4.50593,7.54059c-1.34514,1.41402 -6.38879,1.61566 -11.90379,1.54844c-5.1117,-0.06722 -10.02092,0.20165 -11.63576,-2.35669z" fill="#000000"/><path d="M256.37851,137.24227c-0.06805,-0.40329 0.13443,-0.80741 0.53772,-0.87463c1.41235,-0.80825 2.7575,-1.68371 4.30428,-2.62556l0.60494,0.26887c-0.06722,0.20247 -0.06722,0.40412 -0.06722,0.47134l-3.29523,2.01978c0.20165,0.06722 0.33607,0.13443 0.53772,0.20165c0.67299,0.06805 1.34514,0.06805 2.08534,0.06805c0.47051,0 0.94185,0.13443 1.07628,0.60577c-0.06722,0.40412 -0.33691,0.53856 -0.60577,0.53856c-0.26887,0 -0.53772,-0.06722 -0.73937,-0.06722c-1.21071,-0.13526 -2.3542,-0.26969 -3.56492,-0.40412c-0.33607,0 -0.60494,-0.06722 -0.8738,-0.20247z" fill="#000000"/><path d="M223.28854,136.36764l-0.06722,-0.67381c0.13443,-0.06722 0.26887,-0.13443 0.33607,-0.13443c0.47051,0.06722 0.94185,0.13443 1.41235,0.13443c0.26887,0 0.53772,0 0.94185,0c-0.60577,-0.67299 -1.34514,-0.80741 -1.88369,-1.4804l0.47134,-0.67381c1.614,0.74103 2.82471,2.087 4.57315,2.62556c0.06722,0.20247 0.06722,0.40412 0.13443,0.67381l-0.87463,0.33607c-1.614,-0.60577 -3.29523,-0.47134 -5.04365,-0.80741z" fill="#000000"/></g><g><path d="M320.4731,98.93438c-1.74926,1.75093 -0.47134,6.26183 -0.26969,8.48326c0.26969,3.0969 0.60577,6.19379 0.94185,9.29069c0.60577,5.58802 1.21071,23.42919 -0.20165,28.88277l-28.58404,-27.94009c-0.47051,-5.31833 -0.8738,-17.10096 3.29605,-21.07249c1.68122,-1.61566 5.51499,-3.77071 7.73394,-1.88536c2.95914,2.55834 -1.00823,4.10679 -3.29523,4.24122c-0.26887,1.95257 0.40329,3.63545 0.40329,5.45358c2.08534,0.06722 4.30428,-0.40412 6.45684,-0.40412c1.47957,-1.0099 -0.60577,-5.92409 0.67216,-7.74223c1.54762,-2.15422 7.66756,-2.69277 7.60034,-0.67299c-0.06722,2.01978 -0.7402,2.15422 -1.74844,2.28865l-2.7575,0.26969c-0.94185,0.67299 -0.06722,4.24122 0,5.25111c0.60494,0.94268 4.70758,0.67299 5.71664,0.13443c-0.26887,-2.15422 0.20165,-5.31833 1.74844,-7.20368c1.34514,-1.61566 6.18715,-2.087 6.38962,-0.33691c0.20165,1.75093 -0.06722,1.3468 -0.40412,1.88536c-1.21071,0.74103 -2.42059,0.80825 -3.69852,1.07711z" fill="#d2e614"/><path d="M304.06255,110.24484c1.74844,3.02968 -2.42142,4.17483 -4.50593,4.51091c-0.67299,0.87546 -1.07628,4.4437 -0.33691,5.38637c1.41235,0.80741 3.4977,0.20165 5.04449,0.33691c1.88286,0.20165 3.69935,0.7402 5.38056,1.54844c3.49687,1.61566 6.59127,3.76988 8.54135,7.20368c3.56492,6.26101 3.90099,16.09024 2.95914,23.09228c-4.842,0.60577 -9.75207,-0.13443 -14.59407,0c-3.90099,0.06722 -8.3397,0.80825 -12.17349,0.20165c-0.47051,-4.64534 -0.26887,-9.29069 -0.80741,-13.93603c-0.47051,-4.4437 -1.41235,-8.75213 -1.68122,-13.26304c-0.20165,-3.4338 -1.00906,-9.69481 1.34514,-12.52201c2.21977,-2.49112 8.00363,-4.84782 10.82834,-2.55917z" fill="#a0aa1e"/><path d="M293.70471,145.59111h28.8529c0.26887,7.20368 -2.7575,21.07249 -7.86837,29.15164c-3.63213,5.78967 -14.79655,14.60984 -21.79112,13.80159c-0.40329,-1.68288 -1.54679,-28.34421 -1.54679,-28.34421c0.94101,-2.49029 1.68122,-5.04864 2.21895,-7.67502c0.26969,-2.35587 0.33691,-4.64534 0.13443,-7.0012z" fill="#824600"/></g><g><path d="M159.32838,98.05974c-0.33691,-0.53856 -0.60577,-0.13526 -0.40412,-1.88536c0.20247,-1.75093 5.04449,-1.27959 6.38962,0.33691c1.54679,1.88453 2.0173,5.04864 1.74844,7.20368c0.94185,0.53856 5.1117,0.80741 5.64943,-0.13526c0.06722,-1.0099 0.94185,-4.57812 0,-5.25111l-2.7575,-0.26887c-1.00823,-0.13526 -1.68122,-0.26969 -1.74844,-2.28948c-0.06722,-2.01978 6.05272,-1.48124 7.60034,0.67299c1.27792,1.81814 -0.80741,6.73317 0.73937,7.74307c2.15256,0 4.3715,0.47134 6.45684,0.40329c0,-1.81731 0.67216,-3.50019 0.40329,-5.45276c-2.28699,-0.13526 -6.25437,-1.68371 -3.29523,-4.24205c2.21895,-1.88453 6.05272,0.26969 7.73394,1.81814c4.16986,3.97236 3.76656,15.75417 3.29605,21.07249l-28.58404,27.87288c-1.41235,-5.45358 -0.80741,-23.29475 -0.20165,-28.81555c0.33607,-3.0969 0.67216,-6.19379 0.94185,-9.29069c0.20165,-2.22143 1.47957,-6.73235 -0.26969,-8.48244c-1.34514,-0.26969 -2.55502,-0.26969 -3.69852,-1.0099z" fill="#d2e614"/><path d="M190.19858,112.93845c2.3542,2.82721 1.54679,9.08904 1.34514,12.52201c-0.26887,4.4437 -1.21071,8.82017 -1.68122,13.26304c-0.53856,4.64534 -0.33691,9.29151 -0.80741,13.93686c-3.83377,0.60577 -8.2725,-0.13526 -12.17349,-0.20247c-4.842,-0.13443 -9.75207,0.60577 -14.59407,0c-0.94185,-7.0012 -0.60577,-16.83127 2.95914,-23.09228c1.95008,-3.4338 4.97727,-5.58802 8.54135,-7.20368c1.68122,-0.80825 3.4977,-1.3468 5.38056,-1.54844c1.614,-0.13443 3.69935,0.47134 5.1117,-0.33691c0.73937,-1.0099 0.33607,-4.51091 -0.33691,-5.38555c-2.08451,-0.33691 -6.25437,-1.48124 -4.50593,-4.51091c2.7575,-2.22227 8.60857,0.13443 10.76113,2.55834z" fill="#a0aa1e"/><path d="M192.41834,157.37291c0,0 3.90016,30.70008 3.49687,32.38296c-6.99457,0.80825 -23.53955,-9.15542 -27.17085,-14.8787c-5.17892,-8.14636 -8.20528,-22.21682 -7.8692,-29.35328h28.92011c-0.20165,2.35587 -0.20165,4.77977 0.06722,7.13647c0.20165,1.88453 1.1435,3.50102 2.55585,4.71256z" fill="#824600"/></g><g><path d="M271.78,249.40594l20.57957,3.16494c0,0.33607 -3.09358,18.51415 -3.09358,18.51415l8.13806,0.13443c0,0 -0.06722,0.53856 -0.13443,0.74103c-2.69029,0.06722 -26.0954,-0.06722 -26.0954,-0.06722c0,0 0.47134,-22.08322 0.60577,-22.48734z" fill="#a0aa1e"/><path d="M266.26501,262.06321c-1.27792,-11.17604 -1.1435,-42.01055 -1.1435,-43.82869l32.41699,14.00407c0.26887,1.88536 -1.34514,18.78385 -1.68122,22.41929c-0.20165,2.35587 -0.06722,4.91421 -0.20165,7.33811z" fill="#005a5a"/><path d="M263.57472,256.94652h34.63675v11.10882h-34.63675z" fill="#006482"/></g><g><path d="M221.06877,271.89328c0,0 -23.40512,0.13443 -26.0954,0.06722c-0.06722,-0.20247 -0.13443,-0.74103 -0.13443,-0.74103l8.13806,-0.13443c0,0 -3.09358,-18.17807 -3.09358,-18.51415l20.58041,-3.16494c0.06722,0.40412 0.60494,22.48734 0.60494,22.48734z" fill="#a0aa1e"/><path d="M198.67271,260.9861c-1.74844,-6.93399 -3.16079,-27.40154 -3.16079,-27.40154l29.39063,-8.48244l0.06722,35.81676z" fill="#005a5a"/><path d="M194.63729,258.29332h32.88833v11.10882h-32.88833z" fill="#006482"/></g><g><path d="M192.48556,175.07964c-0.33691,-6.05936 -0.06722,-17.84117 -0.06722,-17.84117c0,0 6.11994,-3.02968 11.02916,-4.84782c4.91005,-1.81731 11.8374,-2.82721 11.8374,-2.82721c0,0 50.7104,-0.40412 57.50332,-0.13526c6.12077,0.26969 16.34333,2.82803 19.77382,6.59791c0.20165,1.14515 1.95008,13.86964 2.0173,14.1385c0.80741,4.174 1.614,18.78385 1.614,18.78385l-52.25719,20.53394l-50.30794,-19.65848c0,0 -0.67216,-6.12657 -1.14266,-14.74427z" fill="#a0640a"/><path d="M250.59382,195.00781l-6.38879,37.90377l-48.76032,0.60577l-1.88369,-43.69343c0,0 16.67942,-22.15043 20.44597,-23.56444c0.06722,0.20247 3.02636,0 3.02636,0c0,0 13.58584,-0.13443 27.17168,-0.13443z" fill="#008264"/><path d="M244.27224,166.12504c12.30791,0 25.01912,0.06722 29.32341,0.33691c4.3715,2.42391 22.5977,22.48651 22.5977,22.48651l1.34514,43.29014l-53.33347,0.67299z" fill="#00a08c"/><path d="M275.68016,148.01501c1.1435,6.93399 0.94185,30.22874 0.94185,30.22874l-6.45684,-0.06722l-0.67216,-30.16152z" fill="#005a5a"/><path d="M273.66286,173.05986c1.00906,0.06722 1.81565,0.94268 1.74844,1.95257c0,1.41319 -1.07628,1.68288 -1.95008,1.61566c-2.21977,-0.06722 -2.28699,-2.087 -1.81565,-2.6936c0.47051,-0.60577 1.14266,-0.94185 1.88286,-0.94185c0,0 0.06722,0 0.13443,0.06722z" fill="#ffc800"/><path d="M217.43747,148.01501l-0.67299,30.16152l-6.38962,0.06722c0,0 -0.20165,-23.29475 0.94185,-30.22874z" fill="#005a5a"/><path d="M213.40205,172.99264c0.73937,0 1.41235,0.33607 1.88286,0.94185c0.47051,0.6066 0.40329,2.62639 -1.81565,2.6936c-0.87463,0.06722 -1.95091,-0.20247 -1.95091,-1.61566c-0.06722,-1.0099 0.7402,-1.88536 1.74926,-1.95257c0,-0.06722 0.06722,-0.06722 0.13443,-0.06722z" fill="#ffc800"/><path d="M255.36944,182.55218c0.06722,0.94268 0.06722,1.88536 0.06722,2.82803c0.06722,4.10679 -1.00906,9.35789 -5.04449,11.64738c-3.49687,2.01978 -10.96277,1.75009 -14.258,-0.67381c-2.7575,-2.96163 -4.64036,-9.22347 -3.56492,-13.80159z" fill="#005a5a"/><path d="M230.95526,178.24375h25.82654v7.27089h-25.82654z" fill="#006482"/><path d="M244.27224,180.26353c1.07628,0.06722 1.88286,1.0099 1.81565,2.087c0,1.48124 -1.00906,1.75009 -1.95008,1.68288c-2.28699,-0.13443 -2.42142,-2.15422 -1.88369,-2.82721c0.47134,-0.60577 1.21071,-1.0099 1.95091,-0.94268z" fill="#fab414"/></g></g><path d="M140.15015,279.84985v-199.6997h199.6997v199.6997z" fill="none" stroke="#000000" stroke-width="0"/></g></g></svg>