<svg version="1.1" xmlns="http://www.w3.org/2000/svg" xmlns:xlink="http://www.w3.org/1999/xlink" width="220.34985" height="199.6997" viewBox="0,0,220.34985,199.6997"><defs><radialGradient cx="238.25" cy="221.92151" r="57.75" gradientUnits="userSpaceOnUse" id="color-1"><stop offset="0" stop-color="#ffffff"/><stop offset="1" stop-color="#ffffff" stop-opacity="0"/></radialGradient><radialGradient cx="360.5" cy="100.25" r="0.0025" gradientUnits="userSpaceOnUse" id="color-2"><stop offset="0" stop-color="#ffffff"/><stop offset="1" stop-color="#ffffff" stop-opacity="0"/></radialGradient></defs><g transform="translate(-140.15015,-80.15015)"><g data-paper-data="{&quot;isPaintingLayer&quot;:true}" fill-rule="nonzero" stroke-linecap="butt" stroke-linejoin="miter" stroke-miterlimit="10" stroke-dasharray="" stroke-dashoffset="0" style="mix-blend-mode: normal"><path d="M140.15015,279.84985v-199.6997h199.6997v199.6997z" fill="none" stroke="#000000" stroke-width="0"/><path d="M296,221.92151c0,31.52358 -25.85555,57.07849 -57.75,57.07849c-31.89445,0 -57.75,-25.55491 -57.75,-57.07849c0,-31.52358 25.85555,-57.07849 57.75,-57.07849c31.89445,0 57.75,25.55491 57.75,57.07849z" fill="url(#color-1)" stroke="none" stroke-width="none"/><g><path d="M253.55503,250.51273c-4.41049,2.66362 -17.36878,-11.10425 -17.36878,-11.10425c0,0 -15.09961,11.39139 -18.99827,8.01852c-3.90202,-3.37273 5.1924,-19.95639 5.1924,-19.95639c0,0 -15.49741,-10.84129 -13.49456,-15.59075c2.00285,-4.75309 20.5825,-1.22806 20.5825,-1.22806c0,0 5.51754,-18.08837 10.65447,-17.65592c5.14391,0.43581 7.53423,19.19879 7.53423,19.19879c0,0 18.90829,-0.34247 20.07753,4.6803c1.17958,5.01942 -15.92638,13.09327 -15.92638,13.09327c0,0 6.16783,17.88088 1.74687,20.5445z" fill="#ffff00" stroke="#000000" stroke-width="1.28786"/><path d="M244.96572,237.3918c-2.22082,1.33873 -8.73462,-5.58322 -8.73462,-5.58322c0,0 -7.58607,5.72504 -9.54406,4.03001c-1.95786,-1.69503 2.60829,-10.02486 2.60829,-10.02486c0,0 -7.78322,-5.45187 -6.78012,-7.8352c1.00673,-2.38696 10.33967,-0.61578 10.33967,-0.61578c0,0 2.77442,-9.09092 5.35839,-8.86946c2.58062,0.21784 3.77752,9.64438 3.77752,9.64438c0,0 9.50605,-0.16962 10.09403,2.35217c0.59509,2.52529 -7.9977,6.57947 -7.9977,6.57947c0,0 3.09258,8.98375 0.87861,10.32248z" fill="#ffffff" stroke="none" stroke-width="2.57572"/></g><ellipse cx="721" cy="200.5" transform="scale(0.5,0.5)" rx="0" ry="0" fill="url(#color-2)" stroke="none" stroke-width="0"/></g></g></svg>