<svg version="1.1" xmlns="http://www.w3.org/2000/svg" xmlns:xlink="http://www.w3.org/1999/xlink" width="199.6997" height="205.47485" viewBox="0,0,199.6997,205.47485"><g transform="translate(-140.15015,-80.15015)"><g data-paper-data="{&quot;isPaintingLayer&quot;:true}" fill-rule="nonzero" stroke-linejoin="miter" stroke-miterlimit="10" stroke-dasharray="" stroke-dashoffset="0" style="mix-blend-mode: normal"><path d="M270.5,277.5c0,3.93503 -12.53603,7.125 -28,7.125c-15.46397,0 -28,-3.18997 -28,-7.125c0,-3.93503 12.53603,-7.125 28,-7.125c15.46397,0 28,3.18997 28,7.125z" fill="#000000" stroke="#000000" stroke-width="2" stroke-linecap="butt"></path><path d="M140.15015,279.84985v-199.6997h199.6997v199.6997z" fill="none" stroke="none" stroke-width="0" stroke-linecap="butt"></path><g stroke-width="0.90608"><path d="M245.92314,266.01462v0v0v0v0v0v0v0v0v0v0v0v0v0v0v0v0c2.42861,-1.11615 3.90467,-1.30092 4.5287,0.00224c0,0 1.21734,2.28651 1.82941,4.66798c0.6105,2.38081 1.04851,5.11977 1.04851,5.11977c0,0 0.81153,0.43362 0.80555,0.862c-0.00448,0.42755 -0.70354,1.26539 -4.38693,1.37023c-3.68272,0.10027 -4.99451,-0.50831 -5.10782,-1.06859c-0.11695,-0.55961 0.31508,-0.60933 0.31508,-0.60933c0,0 0.05096,-0.60784 0,-2.07767c-0.04955,-1.4705 -0.65706,-4.17859 -0.65706,-4.17859c0,0 -0.80331,-2.97346 1.62456,-4.08804z" fill="#9a8479" stroke="#000000" stroke-linecap="butt"></path><path d="M253.84803,256.01338c2.48415,1.11391 5.09504,2.61454 5.23,4.05193c0.38107,4.07981 -4.48521,9.65653 -7.15154,6.20646c-0.60078,-0.776 -0.54534,-1.59194 -0.20253,-2.34154c-0.38854,-0.32579 -0.80406,-0.80389 -0.69159,-1.32574c0.20328,-0.92234 1.73338,-0.3062 1.73338,-0.3062l1.02078,-0.73907l0.11255,-0.07388c-0.1538,-0.59655 -1.45888,-0.9924 -2.38662,-1.20505c0,0 -5.28105,-4.99759 2.33557,-4.26691v0v0v0v0v0v0v0v0v0v0v0v0v0z" fill="#9a8479" stroke="#000000" stroke-linecap="butt"></path><g><path d="M237.47552,265.30174v0v0v0v0v0v0v0v0v0v0v0v0v0v0v0v0c3.22969,1.23751 4.50471,1.91167 4.04952,4.49832c-0.34206,1.94113 1.30424,6.2019 1.30424,6.2019c0,0 0.79883,0.23075 0.52508,0.87851c-0.27375,0.65615 -2.25688,1.09275 -4.82727,0.95471c-2.56964,-0.13721 -4.58871,-0.10633 -4.87972,-0.72695c-0.29176,-0.61763 0.24378,-0.90491 0.24378,-0.90491c0,0 0.09969,-1.46453 0.10276,-3.03836c0,-1.57384 -0.24901,-5.87993 -0.24901,-5.87993c0,0 0.50176,-3.22088 3.73061,-1.9833z" fill="#9a8479" stroke="#000000" stroke-linecap="butt"></path><path d="M240.26794,253.67163v0v0v0v0v0v0v0v0v0v0v0v0v0v0v0v0c6.71129,-0.52185 9.2742,3.39279 9.27197,3.39279c0.5475,1.01132 1.22481,2.43733 1.50677,3.74041c0.07802,0.35974 0.12525,0.76472 0.13803,1.19907c0,0 -0.03976,1.50827 -0.18526,1.96902c-0.6105,1.92902 -1.6058,4.04064 -3.98644,4.99609c-3.73817,1.50519 -7.71564,1.32043 -11.84907,-0.65764c-1.39505,-0.66661 -2.22086,-1.80086 -2.66717,-3.0919c-0.31799,-0.92981 -0.45445,-2.14167 -0.45445,-2.14167c-0.19581,-2.01501 0.15447,-3.98253 0.34123,-4.83847c0,0 1.17384,-4.04511 7.88439,-4.56771z" fill="#9a8479" stroke="#000000" stroke-linecap="butt"></path><path d="M229.3242,256.45061v0v0v0v0v0v0v0v0v0v0v0v0v0v0v0v0c7.61662,-0.73077 2.33557,4.26682 2.33557,4.26525c-0.92782,0.21266 -2.23281,0.61008 -2.38662,1.20663l0.11255,0.07238l1.02228,0.74056c0,0 1.52852,-0.61763 1.7318,0.30471c0.11405,0.52185 -0.30297,0.99995 -0.69151,1.32574c0.34272,0.74953 0.39975,1.56554 -0.20178,2.34154c-2.66634,3.45156 -7.53262,-2.12665 -7.1508,-6.20646c0.13347,-1.4358 2.74436,-2.93809 5.22851,-4.05034z" fill="#9a8479" stroke="#000000" stroke-linecap="butt"></path><g><path d="M205.54196,242.1818v0v0v0v0v0v0v0v0v0v0v0v0v0v0v0v0c-0.03968,-0.06939 -1.1955,-2.01194 -1.1955,-2.01119c-3.20644,-5.17704 -3.91746,-16.88485 -3.63848,-20.53935l0.02482,-0.17489c0.91055,-15.48822 8.07114,-23.75484 12.30053,-28.13031c9.599,-9.93782 24.1482,-10.34205 24.1482,-10.34205l0.51603,10.05552c0,0 -0.02772,-2.89211 5.82556,-7.94697c5.85178,-5.05561 14.5057,-4.31737 14.5057,-4.31737l-4.5917,12.59918c0,0 2.70684,-3.92451 4.92471,-5.35807c3.93323,-2.53835 7.25887,-1.44792 7.25887,-1.44792l-0.91728,7.81499c0,0 5.85327,7.63172 10.33325,14.80418c0.95853,1.53009 2.07004,3.07904 2.77433,4.86105c2.56142,6.47415 2.93195,18.01295 0.05927,23.72844c-0.49504,1.01207 -1.03581,1.99392 -1.59683,2.95918c-0.14551,0.24885 -0.29251,0.49471 -0.44025,0.73758c-0.51305,0.84913 -1.04933,1.68166 -1.6126,2.4878c-0.07645,0.10865 -0.14476,0.22253 -0.22195,0.32961c-0.6383,0.8981 -1.31263,1.76309 -2.01393,2.60392c-0.16725,0.20286 -0.34347,0.39825 -0.51446,0.60029c-0.60078,0.69383 -1.22256,1.36874 -1.86236,2.01733c-0.147,0.15231 -0.29027,0.30687 -0.43876,0.45245c-0.76878,0.75567 -1.56985,1.47581 -2.39491,2.16433c-0.18369,0.15082 -0.37203,0.29558 -0.55721,0.44341c-0.69234,0.55505 -1.40708,1.08669 -2.14067,1.59268c-0.2115,0.1441 -0.41702,0.29566 -0.63,0.43743c-0.89553,0.59124 -1.81057,1.14629 -2.75715,1.65908c-0.168,0.09271 -0.34728,0.17423 -0.51902,0.26395c-0.80854,0.42382 -1.63584,0.8122 -2.48033,1.17343c-3.57473,1.52329 -7.45617,2.51643 -11.62414,2.81815c-4.76269,0.34463 -9.07467,0.19979 -12.96963,-0.31077c-0.96376,-0.12666 -1.90054,-0.27748 -2.81259,-0.44714c-0.17331,-0.03544 -0.3458,-0.06939 -0.51753,-0.10334c-0.92408,-0.18327 -1.83231,-0.38007 -2.70385,-0.60402c-0.00531,-0.00232 -0.01204,-0.00381 -0.01801,-0.00531c-0.87304,-0.2217 -1.71237,-0.4713 -2.53137,-0.73599c-0.14401,-0.04682 -0.29102,-0.0928 -0.43353,-0.13953c-0.78754,-0.25789 -1.55483,-0.53546 -2.29514,-0.83029c-0.12974,-0.04823 -0.25574,-0.10558 -0.38473,-0.15688c-0.72986,-0.29483 -1.44161,-0.60253 -2.1249,-0.92907c-0.02623,-0.01586 -0.0547,-0.0249 -0.08026,-0.03918c-0.69973,-0.33716 -1.36732,-0.68777 -2.01683,-1.04826c-0.12077,-0.0679 -0.24146,-0.13347 -0.35924,-0.20137c-0.62477,-0.35667 -1.23003,-0.72089 -1.80683,-1.09648c-0.08774,-0.05727 -0.17182,-0.11612 -0.25881,-0.1719c-0.54824,-0.36505 -1.07781,-0.73608 -1.58405,-1.11466c-0.05254,-0.03544 -0.10948,-0.07313 -0.15978,-0.11305c-0.52799,-0.399 -1.02676,-0.80696 -1.50826,-1.21792c-0.0938,-0.07844 -0.18526,-0.15837 -0.27532,-0.23756c-0.46947,-0.41029 -0.92027,-0.82124 -1.34483,-1.24357c-0.04873,-0.04598 -0.09296,-0.09504 -0.14019,-0.14102c-0.40058,-0.40116 -0.77932,-0.80464 -1.13857,-1.20812c-0.04955,-0.05877 -0.1065,-0.11538 -0.15754,-0.17265c-0.36671,-0.42457 -1.16106,-1.43132 -1.22256,-1.51126c-0.32023,-0.42531 -0.62477,-0.84996 -0.90076,-1.2722c-0.01652,-0.0264 -0.03304,-0.05204 -0.04873,-0.07844c-0.26403,-0.40647 -0.50558,-0.80696 -0.72986,-1.20588z" fill="#9a8479" stroke="#000000" stroke-linecap="butt"></path><path d="M262.04829,219.58603v0v0v0v0v0v0v0v0v0v0v0v0v0v0v0v0c0,0 8.70338,9.8979 6.01447,20.16525c-2.68734,10.26511 -18.7531,14.6141 -31.09796,13.83362c-16.31859,-1.03315 -23.88341,-10.80804 -21.19757,-20.13653c2.68817,-9.32932 24.29221,-13.69035 24.29221,-13.69035l-3.54767,6.70266c0,0 2.79467,-0.43444 5.05146,-1.73229c2.25688,-1.29628 4.73123,-3.02475 4.73123,-3.02475l-5.16849,7.36628c0,0 6.82683,-0.07238 12.73863,-2.45319c5.9118,-2.37699 8.1837,-7.03069 8.1837,-7.03069z" fill="#e6e7e8" stroke="#000000" stroke-linecap="butt"></path><g stroke="#000000"><path d="M273.18626,214.23401c0,0 14.01075,-7.91601 17.21263,-1.18471c3.20338,6.73055 -2.52614,14.61867 -14.48171,21.75568c0.00075,0 0.26478,-11.71826 -2.73092,-20.57097v0v0v0v0v0v0v0v0v0v0v0v0v0zM273.18626,214.23401c-0.25126,-1.03614 -1.07855,-3.01645 -1.07855,-3.01645M275.60741,236.62999l0.14999,-1.89515" fill="#9a8479" stroke-linecap="round"></path><path d="M275.7574,234.7341c0.07802,-2.17039 0.07579,-5.74413 -0.41178,-10.207c-0.27972,-2.59645 -0.82124,-5.2759 -1.37704,-7.58947l0.00149,0.00299c8.20694,-2.101 15.5108,5.52849 15.5108,5.52849h0.00299c-4.10198,6.84891 -13.66047,12.07576 -13.66047,12.07576l-0.06599,0.18925v0v0v0v0v0v0v0v0v0v0v0v0v0v0v0z" fill="#ee4036" stroke-linecap="butt"></path></g><g stroke="#000000"><path d="M207.42831,239.96775c-11.63758,-4.65752 -17.91684,-10.95595 -16.15724,-17.57262c1.75952,-6.61667 15.32844,-1.56554 15.32844,-1.56554c-1.24431,8.5148 0.8288,19.13815 0.8288,19.13815v0v0v0v0v0v0v0v0v0v0v0v0v0v0v0zM207.07356,217.91947c0,0 -0.41702,1.92827 -0.47404,2.91012M207.55813,239.87719l0.43046,1.70283" fill="#9a8479" stroke-linecap="round"></path><path d="M207.47106,239.71583c0,0 -9.22989,-3.28796 -13.91463,-8.88957l0.00224,-0.00075c0,0 5.22626,-8.06384 12.77615,-7.41226l0.00075,-0.00232c-0.12525,2.18998 -0.18078,4.71106 -0.01876,7.11668c0.27375,4.13559 0.83253,7.38736 1.24133,9.34958l-0.08707,-0.16136v0v0v0v0v0v0v0v0v0v0v0v0v0v0v0z" fill="#ee4036" stroke-linecap="butt"></path></g><path d="M234.32394,236.60136c-0.1973,0 -0.39302,-0.0513 -0.57679,-0.15912c-2.27639,-1.3665 -6.74059,-2.44796 -6.78558,-2.45999c-0.60527,-0.14252 -0.97729,-0.75559 -0.83253,-1.36268c0.14244,-0.61008 0.75003,-0.9826 1.35529,-0.83784c0.19722,0.04673 4.84519,1.17268 7.41931,2.71631c0.5333,0.32131 0.70653,1.01506 0.39004,1.55276c-0.2115,0.35293 -0.58501,0.55057 -0.96974,0.55057v0v0v0v0v0v0v0v0v0v0v0v0v0v0v0v0z" fill="#231f20" stroke="none" stroke-linecap="butt"></path><path d="M253.28032,236.50706c-0.36447,0 -0.7223,-0.17796 -0.93903,-0.50682c-0.34281,-0.51952 -0.20253,-1.2209 0.315,-1.56703c0.4703,-0.31367 4.64349,-3.07987 6.40609,-3.63641c0.59622,-0.19149 1.22481,0.14261 1.41082,0.73907c0.18601,0.59655 -0.14177,1.23303 -0.73509,1.42003c-1.09881,0.34613 -4.16489,2.2465 -5.83452,3.36266c-0.19348,0.12741 -0.40954,0.1885 -0.62328,0.1885v0v0v0v0v0v0v0v0v0v0v0v0v0v0v0v0z" fill="#231f20" stroke="none" stroke-linecap="butt"></path><path d="M233.33835,245.45921c0,0 4.61345,-5.8595 11.41181,-5.8595c6.79687,0 11.41181,4.39498 11.41181,4.39498" fill="none" stroke="#231f20" stroke-linecap="round"></path></g></g></g></g></g></svg>