<svg version="1.1" xmlns="http://www.w3.org/2000/svg" xmlns:xlink="http://www.w3.org/1999/xlink" width="269.58859" height="53.25" viewBox="0,0,269.58859,53.25"><g transform="translate(-105,-153.25)"><g data-paper-data="{&quot;isPaintingLayer&quot;:true}" fill-rule="nonzero" stroke-linecap="butt" stroke-linejoin="miter" stroke-miterlimit="10" stroke-dasharray="" stroke-dashoffset="0" style="mix-blend-mode: normal"><path d="M216,204v-48h48v48z" fill="#66de57" stroke="#52af45" stroke-width="5"></path><path d="M270,204v-48h48v48z" fill="#66de57" stroke="#52af45" stroke-width="5"></path><path d="M161.75,204v-48h48v48z" fill="#66de57" stroke="#52af45" stroke-width="5"></path><path d="M107.5,203.75v-48h48v48z" fill="#66de57" stroke="#52af45" stroke-width="5"></path><path d="M324.08859,203.97898v-48h48v48z" fill="#66de57" stroke="#52af45" stroke-width="5"></path><g fill="#56b145" stroke="none" stroke-width="0"><path d="M174.39909,198.74446v-31.50116h20.25074v31.50116z"></path><path d="M200.92808,179.66066l-9.45507,-9.6284l6.18969,-6.07826l9.45508,9.6284z"></path><path d="M163.27533,174.80033l7.54364,-11.1892l7.19306,4.84949l-7.54365,11.1892z"></path></g><path d="M227.68034,183.42308v-9.76923h5.84615v9.76923z" fill="#55af44" stroke="none" stroke-width="0"></path><path d="M246.83419,183.65384v-9.76923h5.84616v9.76923z" fill="#52b145" stroke="none" stroke-width="0"></path><g fill="#55af44" stroke="none" stroke-width="0"><path d="M282.71111,173v-10.74171h23.54914v10.74171z"></path><path d="M282.84882,197.1v-29.19543h9.50229v29.19543z"></path><path d="M296.62025,196.68686v-29.19543h9.50229v29.19543z"></path></g><path d="M331.62906,183.70513v-7h12.92308v7z" fill="#51b145" stroke="none" stroke-width="0"></path><path d="M349.55213,183.85898v-7h12.92308v7z" fill="#55af44" stroke="none" stroke-width="0"></path><g fill="#56b145" stroke="none" stroke-width="0"><path d="M114.62507,190.52167v-21.04334h7.17386v21.04334z"></path><path d="M129.42935,190.73909v-21.04333h7.17386v21.04333z"></path><path d="M143.39668,191.20971v-21.04333h7.17386v21.04333z"></path><path d="M150.36064,177.12444l-35.42908,-0.04804l0.02757,-7.17385l35.42908,0.04804z"></path></g></g></g></svg>